<?xml version="1.0" encoding="UTF-8" standalone="no"?> <svg width="48" height="48" viewBox="0 0 48 48" fill="none" xmlns="http://www.w3.org/2000/svg">
<path d="M41 41H7C5.6744 40.9984 4.40356 40.4711 3.46622 39.5338C2.52888 38.5964 2.00159 37.3256 2 36V12C2.00159 10.6744 2.52888 9.40356 3.46622 8.46622C4.40356 7.52888 5.6744 7.00159 7 7H41C42.3256 7.00159 43.5964 7.52888 44.5338 8.46622C45.4711 9.40356 45.9984 10.6744 46 12V36C45.9984 37.3256 45.4711 38.5964 44.5338 39.5338C43.5964 40.4711 42.3256 40.9984 41 41V41ZM7 9C6.20435 9 5.44129 9.31607 4.87868 9.87868C4.31607 10.4413 4 11.2044 4 12V36C4 36.7956 4.31607 37.5587 4.87868 38.1213C5.44129 38.6839 6.20435 39 7 39H41C41.7956 39 42.5587 38.6839 43.1213 38.1213C43.6839 37.5587 44 36.7956 44 36V12C44 11.2044 43.6839 10.4413 43.1213 9.87868C42.5587 9.31607 41.7956 9 41 9H7Z" fill="black"/>
<path d="M24 27.471C22.7174 27.4732 21.4829 26.9823 20.552 26.1L6.511 12.724C6.41282 12.6342 6.33353 12.5258 6.27779 12.405C6.22204 12.2842 6.19096 12.1535 6.18637 12.0205C6.18177 11.8876 6.20374 11.7551 6.25101 11.6307C6.29827 11.5063 6.36987 11.3927 6.46162 11.2963C6.55336 11.2 6.66341 11.1229 6.78531 11.0697C6.90721 11.0164 7.03852 10.988 7.17154 10.9861C7.30456 10.9842 7.43662 11.0089 7.55999 11.0586C7.68335 11.1084 7.79555 11.1823 7.89 11.276L21.93 24.646C22.4892 25.1762 23.2304 25.4717 24.001 25.4717C24.7716 25.4717 25.5128 25.1762 26.072 24.646L40.11 11.276C40.2044 11.1823 40.3166 11.1084 40.44 11.0586C40.5634 11.0089 40.6954 10.9842 40.8285 10.9861C40.9615 10.988 41.0928 11.0164 41.2147 11.0697C41.3366 11.1229 41.4466 11.2 41.5384 11.2963C41.6301 11.3927 41.7017 11.5063 41.749 11.6307C41.7962 11.7551 41.8182 11.8876 41.8136 12.0205C41.809 12.1535 41.7779 12.2842 41.7222 12.405C41.6665 12.5258 41.5872 12.6342 41.489 12.724L27.449 26.1C26.5178 26.9826 25.283 27.4734 24 27.471V27.471Z" fill="black"/>
</svg>
